<svg width="22" height="24" viewBox="0 0 22 24" fill="none" xmlns="http://www.w3.org/2000/svg">
<path d="M11 2C9 2 6 2 4 2C2 2 1 3 1 5C1 7 1 10 1 12C1 14 2 15 4 15C4.5 15 5 15 5 15V23L9 15C9 15 14 15 16 15C18 15 19.5 14 19.5 12C19.5 10 19.5 11 19.5 11" stroke="#3369F3" stroke-width="1.5" stroke-linejoin="round"/>
<path d="M15 2L19.9497 6.94975" stroke="#3369F3" stroke-width="3" stroke-linecap="round" stroke-linejoin="round"/>
<path d="M15 6.94977L19.9497 2.00002" stroke="#3369F3" stroke-width="3" stroke-linecap="round" stroke-linejoin="round"/>
</svg>
