<svg width="23" height="24" viewBox="0 0 23 24" fill="none" xmlns="http://www.w3.org/2000/svg">
<path d="M12 2C10 2 6 2 4 2C2 2 1 3 1 5C1 7 1 10 1 12C1 14 2 15 4 15C4.5 15 5 15 5 15V23L9 15C9 15 15 15 17 15C19 15 20.5 14 20.5 12C20.5 10 20.5 11 20.5 11" stroke="#3369F3" stroke-width="1.5" stroke-linejoin="round"/>
<path d="M16 2L20.9497 6.94975" stroke="#3369F3" stroke-width="3" stroke-linecap="round" stroke-linejoin="round"/>
<path d="M16 6.94977L20.9497 2.00002" stroke="#3369F3" stroke-width="3" stroke-linecap="round" stroke-linejoin="round"/>
</svg>
